# xmcd
#
# Track frame offsets:
#	150
#	36476
#	74783
#	88560
#	120203
#	152541
#	188091
#	241255
#	274143
#	292387
#
# Disc length: 4179 seconds
#
# Revision: 1
# Processed by: cddbd v1.5.2PL0 Copyright (c) Steve Scherf et al.
# Submitted via: audiograbber 1.83.01
#
DISCID=9110510a
DTITLE=Laza Ristovski - Merge 2/3/
DYEAR=2000
DGENRE=Rock
TTITLE0=Beyond The Horizon
TTITLE1=Shadow Dance
TTITLE2=Kales Bre Andjo
TTITLE3=Domina
TTITLE4=Poncho
TTITLE5=Pulsing Star
TTITLE6=2/3
TTITLE7=Domina II
TTITLE8=Rockn´ Roll
TTITLE9=Blues
EXTD=
EXTT0=
EXTT1=
EXTT2=
EXTT3=
EXTT4=
EXTT5=
EXTT6=
EXTT7=
EXTT8=
EXTT9=
PLAYORDER=
